<svg xmlns="http://www.w3.org/2000/svg" width="205" height="52" viewBox="0 0 205 52">
  <text id="SkillS_" data-name="SkillS   " transform="translate(0 42)" fill="#303f9f" font-size="39" font-family="SegoeUI-Bold, Segoe UI" font-weight="700"><tspan x="0" y="0" xml:space="preserve">SkillS   </tspan></text>
  <path id="Icon_awesome-search" data-name="Icon awesome-search" d="M27.123,23.777l-5.355-5.355a1.288,1.288,0,0,0-.913-.376H19.98a11.166,11.166,0,1,0-1.934,1.934v.875a1.288,1.288,0,0,0,.376.913l5.355,5.355a1.284,1.284,0,0,0,1.821,0l1.52-1.52A1.3,1.3,0,0,0,27.123,23.777ZM11.171,18.046a6.875,6.875,0,1,1,6.875-6.875A6.871,6.871,0,0,1,11.171,18.046Z" transform="translate(100.503 20.498)" fill="#03a9f4"/>
  <text id="urce" transform="translate(126 42)" fill="#303f9f" font-size="39" font-family="SegoeUI-Bold, Segoe UI" font-weight="700"><tspan x="0" y="0">urce</tspan></text>
</svg>
